<svg id="svg" version="1.1" xmlns="http://www.w3.org/2000/svg" xmlns:xlink="http://www.w3.org/1999/xlink" width="400" height="400" viewBox="0, 0, 400,400">
  <g id="svgg">
    <path id="path0" d="M207.869 20.256 C 207.040 21.085,206.118 23.458,205.820 25.530 C 204.331 35.853,198.315 41.873,188.030 43.329 C 183.196 44.014,181.250 45.929,181.250 50.000 C 181.250 54.067,183.194 55.983,188.030 56.680 C 198.353 58.169,204.373 64.185,205.829 74.470 C 207.179 84.002,217.806 84.002,219.180 74.470 C 220.671 64.134,226.816 57.973,236.970 56.634 C 241.804 55.997,243.750 54.092,243.750 50.000 C 243.750 45.929,241.804 44.014,236.970 43.329 C 226.685 41.873,220.669 35.853,219.180 25.530 C 218.483 20.694,216.567 18.750,212.500 18.750 C 210.456 18.750,208.854 19.271,207.869 20.256 M145.369 45.256 C 144.540 46.085,143.618 48.458,143.320 50.530 C 141.831 60.853,135.815 66.873,125.530 68.329 C 115.998 69.679,115.998 80.306,125.530 81.680 C 135.853 83.169,141.873 89.185,143.329 99.470 C 144.679 109.002,155.306 109.002,156.680 99.470 C 158.171 89.134,164.316 82.973,174.470 81.634 C 179.304 80.997,181.250 79.092,181.250 75.000 C 181.250 70.929,179.304 69.014,174.470 68.329 C 164.185 66.873,158.169 60.853,156.680 50.530 C 155.983 45.694,154.067 43.750,150.000 43.750 C 147.956 43.750,146.354 44.271,145.369 45.256 M270.369 45.256 C 269.540 46.085,268.618 48.458,268.320 50.530 C 266.831 60.853,260.815 66.873,250.530 68.329 C 245.696 69.014,243.750 70.929,243.750 75.000 C 243.750 79.067,245.694 80.983,250.530 81.680 C 260.853 83.169,266.873 89.185,268.329 99.470 C 269.679 109.002,280.306 109.002,281.680 99.470 C 283.171 89.134,289.316 82.973,299.470 81.634 C 309.006 80.377,309.006 69.680,299.470 68.329 C 289.185 66.873,283.169 60.853,281.680 50.530 C 280.983 45.694,279.067 43.750,275.000 43.750 C 272.956 43.750,271.354 44.271,270.369 45.256 M215.251 47.674 L 217.513 50.035 215.007 52.541 L 212.500 55.048 209.993 52.541 L 207.487 50.035 209.749 47.674 C 210.993 46.375,212.231 45.313,212.500 45.313 C 212.769 45.313,214.007 46.375,215.251 47.674 M152.751 72.674 L 155.013 75.035 152.507 77.541 L 150.000 80.048 147.493 77.541 L 144.987 75.035 147.249 72.674 C 148.493 71.375,149.731 70.313,150.000 70.313 C 150.269 70.313,151.507 71.375,152.751 72.674 M277.751 72.674 L 280.013 75.035 277.507 77.541 L 275.000 80.048 272.493 77.541 L 269.987 75.035 272.249 72.674 C 273.493 71.375,274.731 70.313,275.000 70.313 C 275.269 70.313,276.507 71.375,277.751 72.674 M64.453 120.046 C 32.992 126.771,7.710 152.251,1.237 183.756 C -0.917 194.243,-0.613 377.512,1.562 379.688 C 4.031 382.156,395.969 382.156,398.438 379.688 C 400.613 377.512,400.917 194.243,398.763 183.756 C 392.237 151.992,366.758 126.513,334.994 119.987 C 326.141 118.168,72.980 118.224,64.453 120.046 M96.779 133.666 C 121.629 139.391,141.618 159.354,147.636 184.458 C 149.977 194.225,150.189 193.750,143.492 193.750 L 137.766 193.750 136.424 187.506 C 123.984 129.613,38.516 129.613,26.076 187.506 L 24.734 193.750 19.008 193.750 C 12.308 193.750,12.525 194.241,14.872 184.375 C 23.547 147.912,60.178 125.234,96.779 133.666 M163.733 133.897 C 184.997 140.717,201.843 163.291,205.096 189.324 L 205.649 193.750 184.175 193.750 L 162.702 193.750 162.163 188.986 C 159.888 168.881,147.208 147.368,130.078 134.552 L 125.391 131.045 141.406 131.459 C 155.830 131.831,158.049 132.074,163.733 133.897 M288.733 133.809 C 310.210 140.996,326.848 163.326,330.096 189.324 L 330.649 193.750 274.807 193.750 L 218.966 193.750 218.448 188.696 C 216.500 169.681,207.174 150.058,193.859 136.958 L 187.947 131.140 235.184 131.419 L 282.422 131.697 288.733 133.809 M334.279 133.670 C 361.185 139.852,386.617 168.329,386.713 192.383 C 386.718 193.652,385.182 193.750,365.342 193.750 L 343.966 193.750 343.448 188.696 C 341.499 169.670,332.175 150.059,318.841 136.939 L 312.910 131.104 320.322 131.635 C 324.399 131.928,330.679 132.843,334.279 133.670 M95.673 159.235 C 109.692 164.354,120.190 176.458,123.744 191.602 L 124.249 193.750 81.250 193.750 L 38.251 193.750 38.762 191.602 C 44.943 165.608,71.603 150.445,95.673 159.235 M25.000 287.500 L 25.000 368.750 18.750 368.750 L 12.500 368.750 12.500 287.500 L 12.500 206.250 18.750 206.250 L 25.000 206.250 25.000 287.500 M125.000 287.500 L 125.000 368.750 81.250 368.750 L 37.500 368.750 37.500 287.500 L 37.500 206.250 81.250 206.250 L 125.000 206.250 125.000 287.500 M150.000 287.500 L 150.000 368.750 143.750 368.750 L 137.500 368.750 137.500 287.500 L 137.500 206.250 143.750 206.250 L 150.000 206.250 150.000 287.500 M225.000 212.500 L 225.000 218.750 201.563 218.750 C 179.167 218.750,178.056 218.819,176.563 220.313 C 174.106 222.769,174.106 352.231,176.563 354.687 C 179.025 357.150,370.975 357.150,373.438 354.688 C 375.894 352.231,375.894 222.769,373.438 220.313 C 371.944 218.819,370.833 218.750,348.438 218.750 L 325.000 218.750 325.000 212.500 L 325.000 206.250 356.250 206.250 L 387.500 206.250 387.500 287.500 L 387.500 368.750 275.000 368.750 L 162.500 368.750 162.500 287.500 L 162.500 206.250 193.750 206.250 L 225.000 206.250 225.000 212.500 M312.500 237.500 L 312.500 268.750 275.000 268.750 L 237.500 268.750 237.500 237.500 L 237.500 206.250 275.000 206.250 L 312.500 206.250 312.500 237.500 M266.797 213.984 C 252.758 220.498,252.967 244.315,267.101 248.801 C 268.554 249.262,268.750 249.922,268.750 254.350 C 268.750 260.555,270.241 262.500,275.000 262.500 C 279.759 262.500,281.250 260.555,281.250 254.350 C 281.250 249.922,281.446 249.262,282.899 248.801 C 291.396 246.104,296.479 232.128,292.266 223.047 C 288.068 213.999,276.011 209.709,266.797 213.984 M278.906 227.344 C 279.774 228.212,280.469 229.948,280.469 231.250 C 280.469 232.552,279.774 234.288,278.906 235.156 C 278.038 236.024,276.302 236.719,275.000 236.719 C 273.698 236.719,271.962 236.024,271.094 235.156 C 270.226 234.288,269.531 232.552,269.531 231.250 C 269.531 229.948,270.226 228.212,271.094 227.344 C 271.962 226.476,273.698 225.781,275.000 225.781 C 276.302 225.781,278.038 226.476,278.906 227.344 M225.000 254.688 C 225.000 277.083,225.069 278.194,226.563 279.688 C 228.090 281.215,229.167 281.250,275.000 281.250 C 320.833 281.250,321.910 281.215,323.438 279.688 C 324.931 278.194,325.000 277.083,325.000 254.688 L 325.000 231.250 343.750 231.250 L 362.500 231.250 362.500 287.500 L 362.500 343.750 275.000 343.750 L 187.500 343.750 187.500 287.500 L 187.500 231.250 206.250 231.250 L 225.000 231.250 225.000 254.688" stroke="none" fill="currentColor" fill-rule="evenodd"/>
  </g>
</svg>