<!--?xml version="1.0" encoding="utf-8"?-->
<!-- Generator: Adobe Illustrator 22.1.0, SVG Export Plug-In . SVG Version: 6.00 Build 0)  -->
<svg version="1.1" id="_x37_" xmlns="http://www.w3.org/2000/svg" xmlns:xlink="http://www.w3.org/1999/xlink" x="0px" y="0px" viewBox="0 0 800 29.287" style="enable-background:new 0 0 800 29.287;" xml:space="preserve">
<style type="text/css">
	.st0{fill:#F06292;}
</style>
<g>
	<path class="st0" d="M242.958,14.66c-0.734,0-1.328,0.594-1.328,1.329c0,0.734,0.594,1.331,1.328,1.331
		c0.736,0,1.332-0.596,1.332-1.331C244.29,15.253,243.694,14.66,242.958,14.66L242.958,14.66z M557.054,14.66
		c-0.734,0-1.329,0.594-1.329,1.329c0,0.734,0.595,1.331,1.329,1.331c0.733,0,1.329-0.596,1.329-1.331
		C558.383,15.253,557.787,14.66,557.054,14.66L557.054,14.66z M557.054,19.717c-2.059,0-3.728-1.67-3.728-3.728
		c0-2.06,1.669-3.729,3.728-3.729c2.058,0,3.725,1.669,3.725,3.729C560.779,18.047,559.112,19.717,557.054,19.717L557.054,19.717z
		 M445.333,25.773c-1.814,1.658-4.125,1.845-6.417,0.96c2.519-2.681,4.202-6.709,2.31-10.876
		c-3.597-7.91-13.149-13.043-19.096-13.653l-0.343-0.327c7.772-0.549,12.882,0.129,22.879,3.439
		c6.9,2.281,16.104,2.212,23.333-2.353c-1.296,5.795-6.714,7.911-12.032,8.952c-3.666,0.719-10.081-0.949-14.741-2.736
		c4.339,2.99,5.465,5.153,5.879,10.074C447.845,21.648,447.182,24.082,445.333,25.773L445.333,25.773z M377.888,2.204
		c-5.947,0.61-15.5,5.742-19.095,13.653c-1.897,4.167-0.21,8.195,2.308,10.876c-2.291,0.884-4.605,0.697-6.417-0.96
		c-1.853-1.691-2.513-4.125-1.774-6.521c0.415-4.921,1.542-7.085,5.883-10.074c-4.663,1.788-11.076,3.455-14.743,2.736
		c-5.319-1.041-10.74-3.157-12.036-8.952c7.228,4.566,16.432,4.634,23.338,2.353c9.996-3.309,15.105-3.987,22.877-3.439
		L377.888,2.204L377.888,2.204z M242.958,19.717c-2.056,0-3.725-1.67-3.725-3.728c0-2.06,1.669-3.729,3.725-3.729
		c2.059,0,3.727,1.669,3.727,3.729C246.685,18.047,245.017,19.717,242.958,19.717L242.958,19.717z M627.665,13.642
		c-0.197-0.884-0.478-1.681-1.086-2.453c-1.197-1.469-2.8-2.236-4.674-2.236c-1.874,0-3.44,0.796-4.674,2.236
		c-1.205,1.418-1.402,2.829-1.808,4.931h-0.008c-0.5,2.71-2.667,4.108-5.039,4.108c-2.347,0-4.862-1.406-5.387-4.037
		c-0.406-2.07-0.406-3.587-1.55-5.034c-1.197-1.473-2.795-2.241-4.669-2.241c-1.874,0-3.437,0.799-4.669,2.241
		c-1.228,1.441-1.406,2.873-1.82,5.039h0.004c-0.512,2.683-2.667,4.066-5.03,4.066c-2.351,0-4.865-1.404-5.395-4.025
		c-0.401-2.07-0.401-3.583-1.547-5.027c-1.197-1.472-2.801-2.237-4.675-2.237c-1.874,0-3.44,0.794-4.674,2.237
		c-1.014,1.185-1.315,2.392-1.625,3.987h-7.044c-0.383-2.564-2.574-4.535-5.242-4.535c-2.674,0-4.868,1.981-5.246,4.552h-3.147
		c-0.365-3.664-2.678-6.675-6.125-8.324c-5.012-2.395-10.733-2.428-15.936,0.463c-9.976,5.55-10.79,7.995-19.066,13.899
		c-6.65,4.745-15.102,6.123-20.928,5.275c5.537-0.9,9.673-1.169,14.64-5.126c3.699-2.946,4.78-7.819,3.201-12.286
		c-1.576-4.468-5.48-7.291-10.208-7.54c-5.221-0.273-9.75,3.422-10.404,8.613c-0.614,3.715,1.631,7.236,5.258,8.247
		c3.626,1.01,7.34-0.854,8.759-4.343c0.741-1.822,0.327-3.792-1.069-5.18c-1.396-1.387-3.361-1.78-5.182-1.035
		c1.058,0.743,1.567,1.938,1.366,3.217c-0.198,1.283-1.045,2.265-2.282,2.65c-1.239,0.385-2.494,0.057-3.384-0.886
		c-1.097-2.316-0.877-4.837,0.605-6.927c1.484-2.09,3.778-3.004,6.334-2.858c3.943,0.223,7.238,2.495,8.538,6.233
		c1.3,3.738-0.042,7.405-2.822,10.194c-3.707,3.717-12.985,5.807-15.606,5.807c-5.462,0-9.348-0.317-14.823-1.893
		c-8.323-2.39-14.714-4.848-21.783-9.324c9.965,2.386,24.774-4.335,21.621-13.579c-7.616,4.734-16.841,5.885-23.611,3.919
		c-15.089-4.376-21.442-5.151-34.319-3.672c-5.499,0.63-9.673,4.466-11.423,9.667c-1.753-5.202-5.927-9.037-11.425-9.667
		c-12.883-1.479-19.229-0.704-34.32,3.672c-6.773,1.966-15.998,0.815-23.613-3.92c-3.151,9.246,11.657,15.966,21.619,13.58
		c-7.066,4.476-13.461,6.934-21.779,9.324c-5.478,1.576-9.363,1.893-14.828,1.893c-2.616,0-11.898-2.091-15.606-5.807
		c-2.779-2.789-4.123-6.456-2.822-10.194c1.299-3.737,4.593-6.01,8.538-6.233c2.555-0.147,4.854,0.768,6.336,2.858
		c1.481,2.089,1.703,4.61,0.604,6.927c-0.89,0.943-2.146,1.271-3.382,0.886c-1.238-0.385-2.083-1.367-2.284-2.65
		c-0.2-1.279,0.306-2.474,1.368-3.217c-1.823-0.745-3.788-0.352-5.183,1.035c-1.398,1.388-1.812,3.358-1.071,5.18
		c1.422,3.489,5.134,5.353,8.762,4.343c3.622-1.011,5.868-4.533,5.258-8.247c-0.658-5.192-5.186-8.887-10.407-8.613
		c-4.727,0.248-8.631,3.07-10.207,7.54c-1.581,4.466-0.499,9.339,3.2,12.286c4.968,3.956,9.103,4.225,14.643,5.126
		c-5.829,0.848-14.28-0.529-20.929-5.275c-8.278-5.904-9.092-8.352-19.067-13.899c-5.204-2.891-10.928-2.858-15.935-0.463
		c-3.45,1.649-5.76,4.661-6.128,8.324h-3.144c-0.379-2.571-2.574-4.552-5.249-4.552c-2.665,0-4.855,1.971-5.244,4.535h-7.046
		c-0.307-1.595-0.609-2.802-1.623-3.989c-1.234-1.44-2.802-2.234-4.675-2.234c-1.874,0-3.474,0.765-4.671,2.234
		c-1.147,1.447-1.147,2.96-1.552,5.03c-0.525,2.621-3.04,4.025-5.39,4.025c-2.363,0-4.519-1.382-5.035-4.066h0.009
		c-0.418-2.166-0.596-3.597-1.824-5.039c-1.23-1.443-2.796-2.241-4.67-2.241c-1.872,0-3.472,0.768-4.669,2.241
		c-1.144,1.45-1.144,2.964-1.548,5.039c-0.526,2.626-3.041,4.032-5.387,4.032c-2.373,0-4.538-1.398-5.04-4.108h-0.007
		c-0.406-2.101-0.597-3.513-1.809-4.931c-1.232-1.44-2.799-2.236-4.672-2.236c-1.875,0-3.477,0.767-4.674,2.236
		c-0.61,0.772-0.89,1.569-1.087,2.453H2v2.584h170.901v-0.015l0.105-0.001c0.501-2.706,2.667-4.101,5.04-4.101
		c2.377,0,4.929,1.432,5.417,4.111h0.026c0.383,2.014,0.405,3.507,1.532,4.928c1.197,1.473,2.795,2.241,4.669,2.241
		c1.871,0,3.437-0.797,4.669-2.241c1.23-1.443,1.408-2.874,1.823-5.036h-0.019c0.527-2.663,2.667-4.034,5.016-4.034
		c2.374,0,4.925,1.433,5.413,4.118h0.006c0.394,2.045,0.403,3.549,1.542,4.986c1.197,1.471,2.8,2.235,4.674,2.235
		s3.44-0.795,4.672-2.235c1.23-1.44,1.408-2.869,1.825-5.031h-0.021c0.53-2.654,2.671-4.024,5.021-4.024
		c2.376,0,4.932,1.429,5.419,4.109h0.069v0.055h7.865c0.162,2.797,2.458,5.026,5.293,5.026c2.832,0,5.12-2.215,5.293-5.001h3.065
		l-0.011,0.381c0.186,4.332,2.872,7.932,7.002,9.234c2.395,0.755,4.522,0.127,6.489-1.215c2.19-1.493,3.424-3.79,3.175-6.433
		c-0.254-2.643-1.884-4.692-4.329-5.717c-1.236-0.517-2.473-0.601-3.697-0.046c-1.225,0.551-2.048,1.512-2.409,2.805
		c-0.36,1.294-0.156,2.542,0.605,3.652c0.759,1.104,1.85,1.747,3.185,1.875c-0.322-1.712,0.048-3.193,0.911-3.664
		c0.863-0.472,1.49-0.545,2.31,0c0.818,0.546,0.921,1.924,0.841,2.905c-0.132,1.658-0.924,3.031-2.328,3.926
		c-1.402,0.892-2.992,1.055-4.538,0.444c-3.314-1.303-5.387-4.282-5.476-7.843c-0.088-3.563,1.82-6.659,5.071-8.113
		c5.763-2.583,10.598-1.865,14.764,0.59c6.343,3.744,11.538,7.928,17.35,12.465c5.245,4.09,10.126,5.982,14.271,6.304
		c17.178,1.334,32.364-3.398,47.253-12.084c-1.163,2.202-1.372,4.497-0.625,6.874c0.756,2.409,2.261,4.225,4.485,5.408
		c2.948,1.565,7.74,0.442,8.907-1.487c-3.053-2.498-3.635-6.58-2.647-10.397c1.388-5.367,5.291-7.815,10.387-9.997
		c5.146-2.2,9.429-3.665,14.945-2.762c4.709,0.771,8.207,4.045,9.766,8.562c1.555,4.518,0.833,9.268-2.413,12.768
		c-1.942,2.091-4.663,2.779-7.498,2.405c-2.836-0.374-4.967-1.94-6.615-4.271c-1.349-1.904-1.512-4.327-0.046-6.153
		c1.46-1.827,3.936-2.386,6.009-1.298c0.742,0.389,1.202,1.033,1.411,1.846c0.209,0.814,0.094,1.581-0.346,2.297
		c-0.438,0.716-1.071,1.17-1.887,1.352c-0.817,0.185-1.581,0.046-2.286-0.413c1.667,2.04,4.43,2.63,6.78,1.441
		c2.354-1.187,3.5-3.754,2.875-6.314c-0.943-3.853-4.351-6.438-8.31-6.251c-3.957,0.186-7.144,3.081-7.682,7.007
		c-0.655,4.799,1.655,9.244,5.939,11.496c4.285,2.25,9.19,1.558,12.827-1.638c2.014-1.772,3.445-3.919,4.28-6.256
		c0.834,2.337,2.263,4.483,4.279,6.256c3.635,3.196,8.54,3.888,12.822,1.638c4.288-2.253,6.598-6.698,5.94-11.496
		c-0.538-3.927-3.722-6.821-7.681-7.007c-3.958-0.187-7.364,2.399-8.309,6.251c-0.627,2.56,0.521,5.127,2.872,6.314
		c2.352,1.189,5.114,0.599,6.782-1.441c-0.7,0.459-1.467,0.598-2.286,0.415c-0.817-0.185-1.449-0.639-1.887-1.355
		c-0.436-0.716-0.553-1.483-0.342-2.297c0.209-0.813,0.667-1.457,1.411-1.846c2.07-1.088,4.547-0.529,6.01,1.298
		c1.461,1.826,1.299,4.249-0.049,6.153c-1.651,2.332-3.78,3.898-6.615,4.271c-2.836,0.375-5.555-0.313-7.496-2.405
		c-3.245-3.5-3.971-8.25-2.412-12.768c1.557-4.517,5.055-7.791,9.766-8.562c5.516-0.903,9.797,0.562,14.943,2.762
		c5.094,2.182,8.998,4.63,10.389,9.997c0.988,3.818,0.405,7.899-2.649,10.397c1.162,1.928,5.957,3.051,8.905,1.487
		c2.227-1.183,3.727-3,4.484-5.408c0.748-2.377,0.538-4.672-0.625-6.874c14.892,8.686,30.075,13.418,47.253,12.084
		c4.143-0.322,9.026-2.214,14.27-6.304c5.812-4.537,11.008-8.72,17.35-12.465c4.166-2.455,8.997-3.173,14.761-0.59
		c3.252,1.455,5.165,4.55,5.072,8.113c-0.091,3.561-2.163,6.539-5.478,7.843c-1.548,0.611-3.132,0.448-4.536-0.444
		c-1.405-0.894-2.192-2.268-2.327-3.926c-0.08-0.981,0.023-2.359,0.84-2.905c0.82-0.545,1.447-0.472,2.31,0
		c0.864,0.472,1.231,1.952,0.909,3.664c1.335-0.127,2.425-0.77,3.186-1.875c0.758-1.11,0.966-2.358,0.606-3.652
		c-0.363-1.293-1.187-2.254-2.41-2.805c-1.223-0.555-2.46-0.47-3.698,0.046c-2.444,1.024-4.075,3.073-4.326,5.717
		c-0.251,2.643,0.982,4.94,3.173,6.433c1.966,1.342,4.092,1.97,6.488,1.215c4.133-1.303,6.814-4.903,7.002-9.234l-0.013-0.381h3.068
		c0.168,2.786,2.462,5.001,5.29,5.001c2.835,0,5.134-2.229,5.294-5.026h7.865v-0.055h0.068c0.49-2.681,3.041-4.109,5.417-4.109
		c2.35,0,4.491,1.37,5.02,4.024h-0.018c0.414,2.162,0.595,3.593,1.825,5.031c1.232,1.441,2.798,2.235,4.673,2.235
		c1.874,0,3.471-0.765,4.669-2.235c1.141-1.436,1.15-2.941,1.545-4.986h0.005c0.49-2.685,3.041-4.118,5.414-4.118
		c2.349,0,4.491,1.371,5.016,4.034h-0.017c0.413,2.162,0.591,3.593,1.82,5.036c1.233,1.444,2.799,2.241,4.67,2.241
		c1.873,0,3.472-0.768,4.668-2.241c1.127-1.421,1.148-2.914,1.532-4.928h0.028c0.488-2.679,3.04-4.111,5.416-4.111
		c2.373,0,4.541,1.396,5.044,4.101l0.102,0.001v0.015H798v-2.584H627.665L627.665,13.642z"></path>
</g>
</svg>
